<?xml version="1.0" encoding="UTF-8"?><svg id="Camada_1" xmlns="http://www.w3.org/2000/svg" viewBox="0 0 1080 1080"><defs><style>.cls-1{fill:#fff;stroke-width:0px;}</style></defs><path class="cls-1" d="M968.75,208.33c-4.91-36.83-30.33-67.42-65.5-78.83-41-13.34-111-35.5-180.33-54.34-67.66-18.58-139.91-35.17-182.91-35.17s-115.25,16.59-182.91,35.17c-60.58,16.59-120.83,34.5-180.33,54.34-35.17,11.41-60.58,42-65.5,78.83-37.08,279.59,49.17,487.25,154,624.33,44.58,58.58,97.66,110.34,157.58,153.33,20.5,14.92,42.34,28,65.42,39,17.58,8.17,36.09,15,51.75,15s34.17-6.83,51.75-15c23.08-11,44.91-24.08,65.42-39,59.92-43,113-94.75,157.58-153.33,104.84-137.08,191.08-344.42,154-624.33ZM540.01,744.47c-137.38,0-249.14-111.81-249.14-249.19s111.76-249.14,249.14-249.14,249.14,111.76,249.14,249.14-111.76,249.19-249.14,249.19Z"/><path class="cls-1" d="M512.48,670.97s-116.76-17.89-116.76-121.01,152.64-112.92,118.87-240.85c0,0,114.29,37.09,86.4,152.52,0,0,15.1-10,26.68-29.47,0,0,57.89,46.35,57.89,116.85s-80.22,122.39-118.23,121.91c0,0-30.46,3.15-54.85.04Z"/></svg>